# WaveFront *.obj file (generated by CINEMA 4D)

mtllib ./textureB.mtl

v 197 -1.73205077648163 0
v 197.147216796875 -1.63767385482788 0
v 197.28215026855469 -1.53225016593933 0
v 197.40483093261719 -1.41674029827118 0
v 197.51524353027344 -1.29210472106934 0
v 197.61337280273438 -1.15930426120758 0
v 197.73757934570312 -0.94689536094666 0
v 197.83419799804688 -0.72151845693588 0
v 197.9031982421875 -0.48641562461853 0
v 197.94459533691406 -0.24482882022858 0
v 197.95840454101562 0.00000000000001 0
v 197.94459533691406 0.24482882022858 0
v 197.9031982421875 0.48641562461853 0
v 197.83419799804688 0.72151845693588 0
v 197.73757934570312 0.94689536094666 0
v 197.61337280273438 1.15930426120758 0
v 197.51524353027344 1.29210472106934 0
v 197.40483093261719 1.41674029827118 0
v 197.28215026855469 1.53225016593933 0
v 197.147216796875 1.63767385482788 0
v 197 1.73205077648163 0
v -97 171.4730224609375 0
v -97.15533447265625 171.55332946777344 0
v -97.31410980224609 171.61747741699219 0
v -97.47547912597656 171.66596984863281 0
v -97.63862609863281 171.69926452636719 0
v -97.80270385742188 171.71784973144531 0
v -98.04875946044922 171.71922302246094 0
v -98.29224395751953 171.69020080566406 0
v -98.53034973144531 171.63240051269531 0
v -98.76026916503906 171.54747009277344 0
v -98.97920227050781 171.43701171875 0
v -99.184326171875 171.30264282226562 0
v -99.37284851074219 171.14599609375 0
v -99.54194641113281 170.96867370605469 0
v -99.68882751464844 170.77232360839844 0
v -99.81067657470703 170.55854797363281 0
v -99.87661743164062 170.40716552734375 0
v -99.92934417724609 170.24922180175781 0
v -99.96804046630859 170.08523559570312 0
v -99.99187469482422 169.9156494140625 0
v -100 169.74098205566406 0
v -100 -169.74098205566406 0
v -99.99187469482422 -169.9156494140625 0
v -99.96804046630859 -170.08523559570312 0
v -99.92934417724609 -170.24922180175781 0
v -99.87661743164062 -170.40716552734375 0
v -99.81067657470703 -170.55854797363281 0
v -99.68882751464844 -170.77232360839844 0
v -99.54194641113281 -170.96867370605469 0
v -99.37284851074219 -171.14599609375 0
v -99.184326171875 -171.30264282226562 0
v -98.97920227050781 -171.43701171875 0
v -98.76026916503906 -171.54747009277344 0
v -98.53034973144531 -171.63240051269531 0
v -98.29224395751953 -171.69020080566406 0
v -98.04875946044922 -171.71922302246094 0
v -97.80270385742188 -171.71784973144531 0
v -97.63862609863281 -171.69926452636719 0
v -97.47547912597656 -171.66596984863281 0
v -97.31410980224609 -171.61747741699219 0
v -97.15533447265625 -171.55332946777344 0
v -97 -171.4730224609375 0
v 197 -1.73205077648163 -1013
v 197.147216796875 -1.63767385482788 -1013
v 197.28215026855469 -1.53225016593933 -1013
v 197.40483093261719 -1.41674029827118 -1013
v 197.51524353027344 -1.29210472106934 -1013
v 197.61337280273438 -1.15930426120758 -1013
v 197.73757934570312 -0.94689536094666 -1013
v 197.83419799804688 -0.72151845693588 -1013
v 197.9031982421875 -0.48641562461853 -1013
v 197.94459533691406 -0.24482882022858 -1013
v 197.95840454101562 0.00000000000001 -1013
v 197.94459533691406 0.24482882022858 -1013
v 197.9031982421875 0.48641562461853 -1013
v 197.83419799804688 0.72151845693588 -1013
v 197.73757934570312 0.94689536094666 -1013
v 197.61337280273438 1.15930426120758 -1013
v 197.51524353027344 1.29210472106934 -1013
v 197.40483093261719 1.41674029827118 -1013
v 197.28215026855469 1.53225016593933 -1013
v 197.147216796875 1.63767385482788 -1013
v 197 1.73205077648163 -1013
v -97 171.4730224609375 -1013
v -97.15533447265625 171.55332946777344 -1013
v -97.31410980224609 171.61747741699219 -1013
v -97.47547912597656 171.66596984863281 -1013
v -97.63862609863281 171.69926452636719 -1013
v -97.80270385742188 171.71784973144531 -1013
v -98.04875946044922 171.71922302246094 -1013
v -98.29224395751953 171.69020080566406 -1013
v -98.53034973144531 171.63240051269531 -1013
v -98.76026916503906 171.54747009277344 -1013
v -98.97920227050781 171.43701171875 -1013
v -99.184326171875 171.30264282226562 -1013
v -99.37284851074219 171.14599609375 -1013
v -99.54194641113281 170.96867370605469 -1013
v -99.68882751464844 170.77232360839844 -1013
v -99.81067657470703 170.55854797363281 -1013
v -99.87661743164062 170.40716552734375 -1013
v -99.92934417724609 170.24922180175781 -1013
v -99.96804046630859 170.08523559570312 -1013
v -99.99187469482422 169.9156494140625 -1013
v -100 169.74098205566406 -1013
v -100 -169.74098205566406 -1013
v -99.99187469482422 -169.9156494140625 -1013
v -99.96804046630859 -170.08523559570312 -1013
v -99.92934417724609 -170.24922180175781 -1013
v -99.87661743164062 -170.40716552734375 -1013
v -99.81067657470703 -170.55854797363281 -1013
v -99.68882751464844 -170.77232360839844 -1013
v -99.54194641113281 -170.96867370605469 -1013
v -99.37284851074219 -171.14599609375 -1013
v -99.184326171875 -171.30264282226562 -1013
v -98.97920227050781 -171.43701171875 -1013
v -98.76026916503906 -171.54747009277344 -1013
v -98.53034973144531 -171.63240051269531 -1013
v -98.29224395751953 -171.69020080566406 -1013
v -98.04875946044922 -171.71922302246094 -1013
v -97.80270385742188 -171.71784973144531 -1013
v -97.63862609863281 -171.69926452636719 -1013
v -97.47547912597656 -171.66596984863281 -1013
v -97.31410980224609 -171.61747741699219 -1013
v -97.15533447265625 -171.55332946777344 -1013
v -97 -171.4730224609375 -1013
# 126 vertices

vn 0.53969520330429 -0.84186047315598 0
vn 0.57830941677094 -0.81581753492355 0
vn 0.6512787938118 -0.75883853435516 0
vn 0.71775215864182 -0.69629865884781 0
vn 0.77715283632278 -0.6293118596077 0
vn 0.83495074510574 -0.55032467842102 0
vn 0.89289343357086 -0.45026805996895 0
vn 0.9409955739975 -0.33841887116432 0
vn 0.97421300411224 -0.22563038766384 0
vn 0.99361944198608 -0.11278479546309 0
vn 1 0 0
vn 0.99361944198608 0.11278479546309 0
vn 0.97421300411224 0.22563038766384 0
vn 0.9409955739975 0.33841887116432 0
vn 0.89289343357086 0.45026805996895 0
vn 0.83495074510574 0.55032467842102 0
vn 0.77715283632278 0.6293118596077 0
vn 0.71775215864182 0.69629865884781 0
vn 0.6512787938118 0.75883853435516 0
vn 0.57830941677094 0.81581753492355 0
vn 0.53969520330429 0.84186047315598 0
vn 0.49999997019768 0.86602544784546 0
vn 0.45924961566925 0.88830727338791 0
vn 0.41737744212151 0.90873324871063 0
vn 0.33154690265656 0.9434387087822 0
vn 0.24412485957146 0.96974378824234 0
vn 0.15640687942505 0.98769271373749 0
vn 0.05915102362633 0.99824905395508 0
vn -0.0564971268177 0.99840277433395 0
vn -0.17744518816471 0.98413068056107 0
vn -0.2916913330555 0.95651251077652 0
vn -0.39911842346191 0.91689938306808 0
vn -0.49999707937241 0.86602705717087 0
vn -0.59447979927063 0.80411052703857 0
vn -0.68253326416016 0.73085451126099 0
vn -0.76357877254486 0.64571470022202 0
vn -0.83637648820877 0.54815542697906 0
vn -0.89407593011856 0.44791543483734 0
vn -0.93358606100082 0.35835325717926 0
vn -0.96188926696777 0.2734392285347 0
vn -0.98281067609787 0.18461616337299 0
vn -0.99567329883575 0.09292282164097 0
vn -0.99891978502274 0.04646848887205 0
vn -1 0 0
vn -0.99891978502274 -0.04646848887205 0
vn -0.99567329883575 -0.09292282164097 0
vn -0.98281067609787 -0.18461616337299 0
vn -0.96188926696777 -0.2734392285347 0
vn -0.93358606100082 -0.35835325717926 0
vn -0.89407593011856 -0.44791543483734 0
vn -0.83637648820877 -0.54815542697906 0
vn -0.76357877254486 -0.64571470022202 0
vn -0.68253326416016 -0.73085451126099 0
vn -0.59447979927063 -0.80411052703857 0
vn -0.49999707937241 -0.86602705717087 0
vn -0.39911842346191 -0.91689938306808 0
vn -0.2916913330555 -0.95651251077652 0
vn -0.17744518816471 -0.98413068056107 0
vn -0.0564971268177 -0.99840277433395 0
vn 0.05915102362633 -0.99824905395508 0
vn 0.15640687942505 -0.98769271373749 0
vn 0.24412485957146 -0.96974378824234 0
vn 0.33156195282936 -0.94343346357346 0
vn 0.41737046837807 -0.90873640775681 0
vn 0.45920759439468 -0.88832896947861 0
vn 0.5 -0.86602538824081 0
# 66 normals

vt 0 1 0
vt 0.00016962685913 1 0
vt 0.00016962685913 0 0
vt 0 0 0
vt 0.00033573861583 1 0
vt 0.00033573861583 0 0
vt 0.00049918936566 1 0
vt 0.00049918936566 0 0
vt 0.00066070625326 1 0
vt 0.00066070625326 0 0
vt 0.00082088808995 1 0
vt 0.00082088808995 0 0
vt 0.00105957640335 1 0
vt 0.00105957640335 0 0
vt 0.00129743979778 1 0
vt 0.00129743979778 0 0
vt 0.0015351199545 1 0
vt 0.0015351199545 0 0
vt 0.0017728859093 1 0
vt 0.0017728859093 0 0
vt 0.00201075733639 1 0
vt 0.00201075733639 0 0
vt 0.00224862853065 1 0
vt 0.00224862853065 0 0
vt 0.00248639448546 1 0
vt 0.00248639448546 0 0
vt 0.00272407475859 1 0
vt 0.00272407475859 0 0
vt 0.00296193803661 1 0
vt 0.00296193803661 0 0
vt 0.00320062646642 1 0
vt 0.00320062646642 0 0
vt 0.00336080836132 1 0
vt 0.00336080836132 0 0
vt 0.0035223250743 1 0
vt 0.0035223250743 0 0
vt 0.00368577591144 1 0
vt 0.00368577591144 0 0
vt 0.00385188753717 1 0
vt 0.00385188753717 0 0
vt 0.00402151467279 1 0
vt 0.00402151467279 0 0
vt 0.33333334326744 1 0
vt 0.33333334326744 0 0
vt 0.33350294828415 1 0
vt 0.33350294828415 0 0
vt 0.33366906642914 1 0
vt 0.33366906642914 0 0
vt 0.33383253216743 1 0
vt 0.33383253216743 0 0
vt 0.33399403095245 1 0
vt 0.33399403095245 0 0
vt 0.33415421843529 1 0
vt 0.33415421843529 0 0
vt 0.33439290523529 1 0
vt 0.33439290523529 0 0
vt 0.33463078737259 1 0
vt 0.33463078737259 0 0
vt 0.33486846089363 1 0
vt 0.33486846089363 0 0
vt 0.33510622382164 1 0
vt 0.33510622382164 0 0
vt 0.33534407615662 1 0
vt 0.33534407615662 0 0
vt 0.33558195829391 1 0
vt 0.33558195829391 0 0
vt 0.33581972122192 1 0
vt 0.33581972122192 0 0
vt 0.33605739474297 1 0
vt 0.33605739474297 0 0
vt 0.33629527688026 1 0
vt 0.33629527688026 0 0
vt 0.33653396368027 1 0
vt 0.33653396368027 0 0
vt 0.3366941511631 1 0
vt 0.3366941511631 0 0
vt 0.33685564994812 1 0
vt 0.33685564994812 0 0
vt 0.33701911568642 1 0
vt 0.33701911568642 0 0
vt 0.33718523383141 1 0
vt 0.33718523383141 0 0
vt 0.33735483884811 1 0
vt 0.33735483884811 0 0
vt 0.66666668653488 1 0
vt 0.66666668653488 0 0
vt 0.66683632135391 1 0
vt 0.66683632135391 0 0
vt 0.66700237989426 1 0
vt 0.66700237989426 0 0
vt 0.66716587543488 1 0
vt 0.66716587543488 0 0
vt 0.66732734441757 1 0
vt 0.66732734441757 0 0
vt 0.66748756170273 1 0
vt 0.66748756170273 0 0
vt 0.66772621870041 1 0
vt 0.66772621870041 0 0
vt 0.66796410083771 1 0
vt 0.66796410083771 0 0
vt 0.66820180416107 1 0
vt 0.66820180416107 0 0
vt 0.66843956708908 1 0
vt 0.66843956708908 0 0
vt 0.66867744922638 1 0
vt 0.66867744922638 0 0
vt 0.66891527175903 1 0
vt 0.66891527175903 0 0
vt 0.66915303468704 1 0
vt 0.66915303468704 0 0
vt 0.66939073801041 1 0
vt 0.66939073801041 0 0
vt 0.66962862014771 1 0
vt 0.66962862014771 0 0
vt 0.66986727714539 1 0
vt 0.66986727714539 0 0
vt 0.67002749443054 1 0
vt 0.67002749443054 0 0
vt 0.67018896341324 1 0
vt 0.67018896341324 0 0
vt 0.67035245895386 1 0
vt 0.67035245895386 0 0
vt 0.67051857709885 1 0
vt 0.67051857709885 0 0
vt 0.67068815231323 1 0
vt 0.67068815231323 0 0
vt 1 1 0
vt 1 0 0
# 128 texture coordinates

o Extrude.3
usemtl Mat
f 64/4/1 65/3/2 2/2/2 1/1/1
f 65/3/2 66/6/3 3/5/3 2/2/2
f 66/6/3 67/8/4 4/7/4 3/5/3
f 67/8/4 68/10/5 5/9/5 4/7/4
f 68/10/5 69/12/6 6/11/6 5/9/5
f 69/12/6 70/14/7 7/13/7 6/11/6
f 70/14/7 71/16/8 8/15/8 7/13/7
f 71/16/8 72/18/9 9/17/9 8/15/8
f 72/18/9 73/20/10 10/19/10 9/17/9
f 73/20/10 74/22/11 11/21/11 10/19/10
f 74/22/11 75/24/12 12/23/12 11/21/11
f 75/24/12 76/26/13 13/25/13 12/23/12
f 76/26/13 77/28/14 14/27/14 13/25/13
f 77/28/14 78/30/15 15/29/15 14/27/14
f 78/30/15 79/32/16 16/31/16 15/29/15
f 79/32/16 80/34/17 17/33/17 16/31/16
f 80/34/17 81/36/18 18/35/18 17/33/17
f 81/36/18 82/38/19 19/37/19 18/35/18
f 82/38/19 83/40/20 20/39/20 19/37/19
f 83/40/20 84/42/21 21/41/21 20/39/20
f 84/42/22 85/44/22 22/43/22 21/41/22
f 85/44/23 86/46/24 23/45/24 22/43/23
f 86/46/24 87/48/25 24/47/25 23/45/24
f 87/48/25 88/50/26 25/49/26 24/47/25
f 88/50/26 89/52/27 26/51/27 25/49/26
f 89/52/27 90/54/28 27/53/28 26/51/27
f 90/54/28 91/56/29 28/55/29 27/53/28
f 91/56/29 92/58/30 29/57/30 28/55/29
f 92/58/30 93/60/31 30/59/31 29/57/30
f 93/60/31 94/62/32 31/61/32 30/59/31
f 94/62/32 95/64/33 32/63/33 31/61/32
f 95/64/33 96/66/34 33/65/34 32/63/33
f 96/66/34 97/68/35 34/67/35 33/65/34
f 97/68/35 98/70/36 35/69/36 34/67/35
f 98/70/36 99/72/37 36/71/37 35/69/36
f 99/72/37 100/74/38 37/73/38 36/71/37
f 100/74/38 101/76/39 38/75/39 37/73/38
f 101/76/39 102/78/40 39/77/40 38/75/39
f 102/78/40 103/80/41 40/79/41 39/77/40
f 103/80/41 104/82/42 41/81/42 40/79/41
f 104/82/42 105/84/43 42/83/43 41/81/42
f 105/84/44 106/86/44 43/85/44 42/83/44
f 106/86/45 107/88/46 44/87/46 43/85/45
f 107/88/46 108/90/47 45/89/47 44/87/46
f 108/90/47 109/92/48 46/91/48 45/89/47
f 109/92/48 110/94/49 47/93/49 46/91/48
f 110/94/49 111/96/50 48/95/50 47/93/49
f 111/96/50 112/98/51 49/97/51 48/95/50
f 112/98/51 113/100/52 50/99/52 49/97/51
f 113/100/52 114/102/53 51/101/53 50/99/52
f 114/102/53 115/104/54 52/103/54 51/101/53
f 115/104/54 116/106/55 53/105/55 52/103/54
f 116/106/55 117/108/56 54/107/56 53/105/55
f 117/108/56 118/110/57 55/109/57 54/107/56
f 118/110/57 119/112/58 56/111/58 55/109/57
f 119/112/58 120/114/59 57/113/59 56/111/58
f 120/114/59 121/116/60 58/115/60 57/113/59
f 121/116/60 122/118/61 59/117/61 58/115/60
f 122/118/61 123/120/62 60/119/62 59/117/61
f 123/120/62 124/122/63 61/121/63 60/119/62
f 124/122/63 125/124/64 62/123/64 61/121/63
f 125/124/64 126/126/65 63/125/65 62/123/64
f 126/126/66 64/128/66 1/127/66 63/125/66

# 0 vertex

vn 0 0 1
vn 0 0 0
# 2 normals

vt 0.00687569286674 0.0000581741333 0
vt 0.00873519014567 0.00071692466736 0
vt 0.00828288774937 0.00048303604126 0
vt 0.00735071673989 0.00015509128571 0
vt 0.00639793975279 0.00000405311584 0
vt 0.00568149145693 0 0
vt 0.00497252726927 0.00008451938629 0
vt 0.00427922280505 0.00025284290314 0
vt 0.00360975251533 0.00050008296967 0
vt 0.0029722917825 0.00082170963287 0
vt 0 0.00576019287109 0
vt 0.00237501598895 0.00121295452118 0
vt 0.86478382349014 0.49495673179626 0
vt 0.86478382349014 0.50504326820374 0
vt 0.00782058853656 0.00029623508453 0
vt 0.0018261000514 0.00166916847229 0
vt 0.00133371900301 0.00218546390533 0
vt 0.00090604799334 0.00275719165802 0
vt 0.00055126217194 0.00337958335876 0
vt 0.0003592671128 0.00382041931152 0
vt 0.00002366532317 0.00525152683258 0
vt 0.00020572113863 0.00428020954132 0
vt 0.00009304645209 0.00475776195526 0
vt 0 0.9942399263382 0
vt 0.00873519014567 0.99928313493729 0
vt 0.00002366532317 0.99474853277206 0
vt 0.0003592671128 0.99617964029312 0
vt 0.00055126217194 0.99662047624588 0
vt 0.00090604799334 0.99724286794662 0
vt 0.00133371900301 0.99781459569931 0
vt 0.0018261000514 0.99833089113235 0
vt 0.00237501598895 0.99878704547882 0
vt 0.0029722917825 0.99917829036713 0
vt 0.00009304645209 0.99524223804474 0
vt 0.00020572113863 0.99571979045868 0
vt 0.00360975251533 0.99949991703033 0
vt 0.00427922280505 0.99974721670151 0
vt 0.00497252726927 0.99991548061371 0
vt 0.00568149145693 1 0
vt 0.00639793975279 0.9999960064888 0
vt 0.00687569286674 0.99994188547134 0
vt 0.00735071673989 0.99984496831894 0
vt 0.00828288774937 0.99951696395874 0
vt 0.00782058853656 0.99970376491547 0
vt 0.86521244049072 0.50476849079132 0
vt 0.86628401279449 0.50376230478287 0
vt 0.86656981706619 0.50337558984756 0
vt 0.86693143844604 0.50275713205338 0
vt 0.86721277236938 0.5021008849144 0
vt 0.86741364002228 0.50141632556915 0
vt 0.86753422021866 0.50071287155151 0
vt 0.86757439374924 0.5 0
vt 0.86560535430908 0.50446152687073 0
vt 0.86596256494522 0.50412517786026 0
vt 0.86753422021866 0.49928712844849 0
vt 0.86741364002228 0.49858367443085 0
vt 0.86721277236938 0.49789917469025 0
vt 0.86693143844604 0.49724292755127 0
vt 0.86656981706619 0.49662446975708 0
vt 0.86628401279449 0.49623775482178 0
vt 0.86596256494522 0.49587488174438 0
vt 0.86521244049072 0.49523150920868 0
vt 0.86560535430908 0.49553847312927 0
# 63 texture coordinates

o Cap_1
usemtl Mat
f 2/190/67 3/191/67 4/189/67 5/188/67 6/187/67 7/186/67 8/185/67 9/184/67 10/183/67 11/180/67 12/179/67 13/178/67 14/177/67 15/176/67 16/175/67 17/174/67 18/182/67 19/181/67 20/173/67 21/142/67 22/153/67 23/171/67 24/172/67 25/170/67 26/169/67 27/168/67 28/167/67 29/166/67 30/165/67 31/164/67 32/161/67 33/160/67 34/159/67 35/158/67 36/157/67 37/156/67 38/155/67 39/163/67 40/162/67 41/154/67 42/152/67 43/139/67 44/149/67 45/151/67 46/150/67 47/148/67 48/147/67 49/146/67 50/145/67 51/144/67 52/140/67 53/138/67 54/137/67 55/136/67 56/135/67 57/134/67 58/133/67 59/129/67 60/132/67 61/143/67 62/131/67 63/130/67 1/141/67

# 0 vertex

vn 0 0 -1
# 1 normal

# 0 texture coordinate

o Cap_2
usemtl Mat
f 126/130/69 125/131/69 124/143/69 123/132/69 122/129/69 121/133/69 120/134/69 119/135/69 118/136/69 117/137/69 116/138/69 115/140/69 114/144/69 113/145/69 112/146/69 111/147/69 110/148/69 109/150/69 108/151/69 107/149/69 106/139/69 105/152/69 104/154/69 103/162/69 102/163/69 101/155/69 100/156/69 99/157/69 98/158/69 97/159/69 96/160/69 95/161/69 94/164/69 93/165/69 92/166/69 91/167/69 90/168/69 89/169/69 88/170/69 87/172/69 86/171/69 85/153/69 84/142/69 83/173/69 82/181/69 81/182/69 80/174/69 79/175/69 78/176/69 77/177/69 76/178/69 75/179/69 74/180/69 73/183/69 72/184/69 71/185/69 70/186/69 69/187/69 68/188/69 67/189/69 66/191/69 65/190/69 64/141/69

